<?xml version="1.0"?>
<svg xmlns="http://www.w3.org/2000/svg" height="512px" viewBox="-66 0 512 512.001" width="512px"><path d="m90 286c5.519531 0 10-4.480469 10-10s-4.480469-10-10-10-10 4.480469-10 10 4.480469 10 10 10zm0 0" fill="#FFFFFF"/><path d="m0 252.570312v23.429688 206c0 16.542969 13.457031 30 30 30h120c16.542969 0 30-13.457031 30-30 0-3.664062 0-199.234375 0-206v-23.429688c0-13.355468-5.203125-25.914062-14.648438-35.359374l-24.777343-24.78125c3.242187-25.5625 3.636719-53.222657 1.136719-80.347657-1.523438-16.6875-4.101563-32.742187-7.675782-47.785156 2.46875-4.941406 4.910156-9.824219 4.910156-9.824219 1.066407-2.136718 1.335938-4.582031.757813-6.898437l-10-40c-1.113281-4.453125-5.113281-7.574219-9.703125-7.574219h-60c-4.589844 0-8.585938 3.121094-9.699219 7.574219l-10 40c-.582031 2.316406-.3125 4.757812.753907 6.894531 0 0 2.449218 4.90625 4.929687 9.859375-3.574219 15.039063-6.160156 31.082031-7.691406 47.746094-2.503907 27.132812-2.105469 54.796875 1.136719 80.355469l-24.78125 24.78125c-9.445313 9.445312-14.648438 22.003906-14.648438 35.359374zm66.269531-187.003906c.582031-2.324218.3125-4.78125-.761719-6.921875-1.664062-3.3125-3.578124-7.144531-4.910156-9.804687l7.210938-28.839844h44.386718l7.207032 28.835938c-1.328125 2.660156-3.242188 6.484374-4.898438 9.808593-1.066406 2.136719-1.332031 4.582031-.75 6.898438 2.964844 11.824219 5.257813 24.386719 6.863282 37.457031h-61.226563c1.613281-13.054688 3.910156-25.609375 6.878906-37.433594zm-46.269531 220.433594h30c5.523438 0 10-4.476562 10-10s-4.476562-10-10-10h-30v-13.429688c0-8.015624 3.121094-15.550781 8.792969-21.21875l28.28125-28.28125c2.222656-2.226562 3.269531-5.371093 2.828125-8.484374-3.230469-22.597657-4.046875-47.164063-2.410156-71.585938h65.015624c1.636719 24.421875.824219 48.988281-2.40625 71.585938-.445312 3.113281.601563 6.257812 2.828126 8.484374l28.277343 28.28125c5.671875 5.667969 8.792969 13.203126 8.792969 21.21875v13.429688h-30c-5.523438 0-10 4.476562-10 10s4.476562 10 10 10h30v146h-140zm0 166h140v30c0 5.515625-4.484375 10-10 10h-120c-5.511719 0-10-4.484375-10-10zm0 0" fill="#FFFFFF"/><path d="m90 319c-22.054688 0-40 17.945312-40 40s17.945312 40 40 40 40-17.945312 40-40-17.945312-40-40-40zm0 60c-11.027344 0-20-8.972656-20-20s8.972656-20 20-20 20 8.972656 20 20-8.972656 20-20 20zm0 0" fill="#FFFFFF"/><path d="m200.09375 236.25c.003906.15625.011719.3125.023438.472656.84375 30.957032 6.640624 62.921875 16.335937 90.066406 2.386719 9.3125 37.042969 79.996094 13.847656 172.785157-.75 2.988281-.078125 6.152343 1.820313 8.582031 1.894531 2.425781 4.800781 3.84375 7.878906 3.84375h100.640625c5.523437 0 10-4.476562 10-10 0-2.070312-.628906-3.992188-1.707031-5.589844-21.742188-92.097656 12.660156-161.988281 14.613281-169.617187 10.011719-28.023438 15.621094-60.578125 16.363281-90.542969.160156-6.511719.0625-6.128906.089844-60.25 0-1.066406-.167969-2.09375-.480469-3.058594 4.097657-30.492187-19.359375-56.941406-49.519531-56.941406-6.902344 0-13.71875 1.429688-20 4.167969-6.277344-2.738281-13.09375-4.167969-20-4.167969-6.902344 0-13.71875 1.429688-20 4.167969-6.277344-2.738281-13.09375-4.167969-20-4.167969-30.15625 0-53.613281 26.449219-49.515625 56.941406-.3125.964844-.484375 1.992188-.484375 3.058594.03125 54.128906-.070312 53.738281.09375 60.25zm52.40625 255.75c1.328125-6.589844 2.40625-13.273438 3.261719-20h68.480469c.855468 6.722656 1.933593 13.40625 3.257812 20zm92.214844-171.933594c-2.699219 10.179688-26.632813 58.332032-22.320313 131.933594h-64.789062c4.3125-73.589844-19.625-121.777344-22.316407-131.933594-7.988281-22.363281-13.121093-48.316406-14.734374-74.066406h21.164062c4.128906 11.640625 15.246094 20 28.28125 20 13.039062 0 24.152344-8.371094 28.28125-20.011719h61.164062c-1.609374 25.75-6.746093 51.714844-14.730468 74.078125zm15.285156-94.066406h-60v-30c0-5.515625 4.488281-10 10-10h50zm-110-90c5.277344 0 10.460938 1.386719 14.996094 4.007812 3.097656 1.789063 6.914062 1.789063 10.011718 0 4.53125-2.621093 9.714844-4.007812 14.992188-4.007812s10.460938 1.386719 14.996094 4.007812c3.097656 1.789063 6.914062 1.789063 10.011718 0 4.53125-2.621093 9.714844-4.007812 14.992188-4.007812 16.695312 0 30.03125 13.558594 30 30h-50c-16.542969 0-30 13.457031-30 30v40c0 5.515625-4.484375 10-10 10-5.511719 0-10-4.484375-10-10v-40c0-16.542969-13.457031-30-30-30h-10c-.03125-16.429688 13.296875-30 30-30zm-30 50h10c5.515625 0 10 4.484375 10 10v30h-20zm0 0" fill="#FFFFFF"/></svg>
